<?xml version="1.0" standalone="no"?>
<!DOCTYPE svg PUBLIC "-//W3C//DTD SVG 20010904//EN"
 "http://www.w3.org/TR/2001/REC-SVG-20010904/DTD/svg10.dtd">
<svg version="1.0" xmlns="http://www.w3.org/2000/svg"
 width="500.000000pt" height="500.000000pt" viewBox="0 0 500.000000 500.000000"
 preserveAspectRatio="xMidYMid meet">
<metadata>
Created by potrace 1.14, written by Peter Selinger 2001-2017
</metadata>
<g transform="translate(0.000000,500.000000) scale(0.100000,-0.100000)"
fill="#000000" stroke="none">
<path d="M1205 3938 c-3 -7 -21 -58 -41 -113 -20 -55 -42 -118 -50 -140 -7
-22 -25 -71 -39 -110 -15 -38 -35 -95 -45 -125 -10 -30 -32 -92 -49 -137 l-31
-83 43 -1 c385 -5 3552 2 3557 8 5 4 13 24 18 43 6 19 18 53 26 75 8 22 33 90
55 150 101 281 130 363 145 403 l15 42 -1800 0 c-1431 0 -1801 -3 -1804 -12z"/>
<path d="M815 2858 c-2 -7 -18 -51 -36 -98 -17 -47 -41 -114 -54 -150 -53
-153 -127 -359 -145 -404 -11 -27 -20 -51 -20 -55 0 -4 3353 -6 3567 -2 29 1
33 5 53 59 22 58 105 287 120 332 5 14 23 63 40 110 18 47 42 115 55 153 l24
67 -1800 0 c-1431 0 -1801 -3 -1804 -12z"/>
<path d="M421 1768 c-11 -30 -121 -340 -125 -353 -2 -5 -4 -12 -4 -15 -1 -3
-8 -23 -18 -45 -9 -22 -33 -87 -54 -145 -21 -58 -41 -113 -45 -122 -7 -17 82
-18 1792 -18 l1799 0 58 158 c31 86 66 180 76 207 10 28 41 111 69 185 27 74
52 143 56 153 7 16 -83 17 -1794 17 l-1801 0 -9 -22z"/>
</g>
</svg>
